# xmcd
#
# Track frame offsets: 
#        150
#        17994
#        32544
#        43404
#        57052
#        69929
#        78682
#        100540
#        112531
#        118969
#        124491
#
# Disc length: 1822 seconds
#
# Revision: 0
# Processed by: cddbd v1.5.2PL0 Copyright (c) Steve Scherf et al.
# Submitted via: ExactAudioCopyFreeDBPlugin 1.0
#
DISCID=8e071c0b
DTITLE=Talmud Beach - Talmud Beach
DYEAR=2013
DGENRE=Blues
TTITLE0=Hobo Don't Mind a Little Rain
TTITLE1=Sold My Hair
TTITLE2=Klubilla
TTITLE3=City Lights
TTITLE4=The Wizard
TTITLE5=Sweetissä
TTITLE6=Time On Highway 5
TTITLE7=Pyramid Boogie
TTITLE8=Drinkin' Kilju
TTITLE9=Aamulla rautatieasemalla
TTITLE10=How Long?
EXTD=
EXTT0=
EXTT1=
EXTT2=
EXTT3=
EXTT4=
EXTT5=
EXTT6=
EXTT7=
EXTT8=
EXTT9=
EXTT10=
PLAYORDER=
